<svg width="64" height="64" viewBox="0 0 64 64" fill="none" xmlns="http://www.w3.org/2000/svg">
  <defs>
    <linearGradient id="grad" x1="0" y1="0" x2="1" y2="1">
      <stop offset="0%" stop-color="#28a6ff" />
      <stop offset="100%" stop-color="#6b3cff" />
    </linearGradient>
    <filter id="shadow" x="-20%" y="-20%" width="140%" height="140%">
      <feDropShadow dx="0" dy="3" stdDeviation="5" flood-color="#000" flood-opacity="0.16"/>
    </filter>
  </defs>
  <g filter="url(#shadow)">
    <path d="M17 10c0-4 3-7 7-7h16c4 0 7 3 7 7v30c0 4-3 7-7 7H24c-4 0-7-3-7-7V10Z" fill="url(#grad)"/>
    <circle cx="40" cy="14" r="8" fill="url(#grad)"/>
    <path d="M24 24c0-2 2-4 4-4h12c2 0 4 2 4 4v16c0 2-2 4-4 4H28c-2 0-4-2-4-4V24Z" fill="white" opacity="0.16"/>
  </g>
</svg>
